<svg width="64" height="64" xmlns="http://www.w3.org/2000/svg" version="1.1">
 <g>
  <title>Layer 1</title>
  <g id="layer2" display="inline">
   <path d="m31.20391,43.47618l0,-22.49176l1.27613,0l0,22.41115l-1.27613,0.08061z" id="path6" fill="#e6e6e6" stroke-width="0.266"/>
   <path d="m39.2473,31.57276l0,1.04336c0,0 -6.76547,-0.0564 -6.76547,7.09197l-1.27908,0c0,0 0.1207,-8.13533 8.04455,-8.13533z" id="path7" fill="#e6e6e6" stroke-width="0.26458"/>
   <path d="m39.24615,12.94329l0,1.04335c0,0 -6.76547,-0.0564 -6.76547,7.09198l-1.27908,0c0,0 0.1207,-8.13533 8.04455,-8.13533z" id="path7-3" fill="#e6e6e6" stroke-width="0.26458"/>
   <path d="m24.46837,23.44916l0,1.04335c0,0 6.74014,-0.0564 6.74014,7.09198l1.27429,0c0,0 -0.12025,-8.13533 -8.01443,-8.13533z" id="path7-1" fill="#e6e6e6" stroke-width="0.26409"/>
   <rect id="rect7" width="8.45435" height="8.45435" x="17.08671" y="19.78805" fill="#e6e6e6" stroke-width="0.26458"/>
   <rect id="rect7-6" width="8.45435" height="8.45435" x="38.39517" y="28.08085" fill="#e6e6e6" stroke-width="0.26458"/>
   <rect id="rect7-6-2" width="8.45435" height="8.45435" x="38.45894" y="9.43745" fill="#e6e6e6" stroke-width="0.26458"/>
   <circle id="path5" cx="31.76222" cy="48.66046" r="5.90209" fill="#37c837" stroke-width="0.26458"/>
  </g>
 </g>

</svg>